<svg xmlns="http://www.w3.org/2000/svg" width="147" height="15" viewBox="0 0 147 15">
    <g fill="none" fill-rule="evenodd">
        <path d="M0-4h116v20H0z"/>
        <g fill="#E60012" fill-rule="nonzero">
            <path d="M22.154 3.128c-.986 0-2.108.434-2.794 1.304V3.265h-2.352V11.4h2.352V6.77c0-.832.68-1.718 1.94-1.718.974 0 1.981.643 1.981 1.719V11.4h2.353V6.357c0-1.871-1.41-3.229-3.48-3.229M41.394 3.272l-2.127 5.542-2.127-5.542h-2.687l3.525 8.133h2.578l3.525-8.133zM10.458 5.725c.401-.511 1.04-.811 1.81-.811.848 0 1.491.46 1.824 1.138l-4.11 1.62c-.113-.832.111-1.482.476-1.947zm4.52 3.182c-.99.696-1.556.862-2.459.862-.812 0-1.448-.24-1.897-.66l6.015-2.369c-.132-.883-.484-1.671-1.028-2.271-.79-.871-1.96-1.332-3.384-1.332-2.587 0-4.537 1.812-4.537 4.205 0 2.455 1.955 4.205 4.797 4.205 1.592 0 3.22-.717 3.981-1.554l-1.488-1.086zM7.907 9.281H2.56V.764H.175v10.569h7.732zM47.851 5.038c-1.314 0-2.268.946-2.268 2.29a2.27 2.27 0 0 0 2.3 2.291c1.314 0 2.268-.971 2.268-2.29a2.27 2.27 0 0 0-2.3-2.29m0 6.494c-2.573 0-4.589-1.82-4.589-4.204 0-2.358 2.03-4.205 4.62-4.205 2.574 0 4.59 1.82 4.59 4.205 0 2.357-2.03 4.204-4.62 4.204M30.652 5.038c-1.314 0-2.267.946-2.267 2.29a2.27 2.27 0 0 0 2.299 2.291c1.314 0 2.267-.971 2.267-2.29a2.27 2.27 0 0 0-2.299-2.29m0 6.494c-2.573 0-4.588-1.82-4.588-4.204 0-2.358 2.029-4.205 4.62-4.205 2.573 0 4.589 1.82 4.589 4.205 0 2.357-2.03 4.204-4.621 4.204"/>
        </g>
        <text fill="#4A4A4A" font-family="MarkPro-Book, Mark Pro" font-size="14" font-weight="300" transform="translate(0 -4)">
            <tspan x="59" y="16">Hybrid Cloud</tspan>
        </text>
    </g>
</svg>
